<svg width="997" height="328" viewBox="0 0 997 328" fill="none" xmlns="http://www.w3.org/2000/svg">
<path d="M344.952 33L355.512 5.56H362.872L373.432 33H366.992L365.032 27.6H353.072L351.112 33H344.952ZM354.792 22.8H363.312L360.872 16.04C360.765 15.7467 360.632 15.4 360.472 15C360.338 14.5733 360.192 14.1067 360.032 13.6C359.872 13.0933 359.712 12.6 359.552 12.12C359.418 11.6133 359.285 11.16 359.152 10.76H358.912C358.778 11.2667 358.605 11.8667 358.392 12.56C358.178 13.2267 357.965 13.88 357.752 14.52C357.538 15.1333 357.365 15.64 357.232 16.04L354.792 22.8ZM377.497 33V5.56H392.537C394.564 5.56 396.244 5.92 397.577 6.64C398.937 7.36 399.95 8.37333 400.617 9.68C401.284 10.96 401.617 12.44 401.617 14.12C401.617 15.9067 401.217 17.4933 400.417 18.88C399.617 20.24 398.457 21.28 396.937 22L402.537 33H395.937L391.097 23H383.457V33H377.497ZM383.457 18.28H391.737C392.937 18.28 393.87 17.92 394.537 17.2C395.204 16.4533 395.537 15.4533 395.537 14.2C395.537 13.4 395.39 12.72 395.097 12.16C394.804 11.5733 394.377 11.1333 393.817 10.84C393.257 10.5467 392.564 10.4 391.737 10.4H383.457V18.28ZM418.196 33.48C416.596 33.48 415.076 33.32 413.636 33C412.196 32.68 410.916 32.1733 409.796 31.48C408.702 30.76 407.836 29.8667 407.196 28.8C406.582 27.7067 406.276 26.3867 406.276 24.84C406.276 24.7067 406.276 24.5733 406.276 24.44C406.276 24.28 406.289 24.16 406.316 24.08H412.236C412.209 24.16 412.196 24.2667 412.196 24.4C412.196 24.5333 412.196 24.6533 412.196 24.76C412.196 25.6133 412.422 26.3333 412.876 26.92C413.356 27.5067 414.049 27.9467 414.956 28.24C415.862 28.5333 416.916 28.68 418.116 28.68C418.889 28.68 419.569 28.64 420.156 28.56C420.769 28.4533 421.302 28.32 421.756 28.16C422.236 27.9733 422.622 27.76 422.916 27.52C423.236 27.28 423.462 27 423.596 26.68C423.756 26.36 423.836 26 423.836 25.6C423.836 24.88 423.596 24.2933 423.116 23.84C422.662 23.3867 422.022 23 421.196 22.68C420.396 22.36 419.489 22.0667 418.476 21.8C417.462 21.5333 416.422 21.2667 415.356 21C414.289 20.7067 413.249 20.36 412.236 19.96C411.222 19.5333 410.316 19.0267 409.516 18.44C408.716 17.8533 408.076 17.1067 407.596 16.2C407.116 15.2933 406.876 14.2 406.876 12.92C406.876 11.56 407.156 10.3867 407.716 9.4C408.302 8.41333 409.116 7.6 410.156 6.96C411.196 6.32 412.396 5.85333 413.756 5.56C415.116 5.24 416.596 5.08 418.196 5.08C419.689 5.08 421.102 5.24 422.436 5.56C423.769 5.85333 424.942 6.33333 425.956 7C426.969 7.66667 427.756 8.50667 428.316 9.52C428.902 10.5333 429.196 11.7333 429.196 13.12V13.6H423.396V13.28C423.396 12.56 423.182 11.9467 422.756 11.44C422.329 10.9333 421.729 10.5333 420.956 10.24C420.182 9.94667 419.276 9.8 418.236 9.8C417.116 9.8 416.156 9.90667 415.356 10.12C414.582 10.3333 413.982 10.6533 413.556 11.08C413.156 11.48 412.956 11.96 412.956 12.52C412.956 13.16 413.182 13.6933 413.636 14.12C414.116 14.52 414.756 14.88 415.556 15.2C416.382 15.4933 417.302 15.76 418.316 16C419.329 16.24 420.369 16.5067 421.436 16.8C422.502 17.0933 423.542 17.44 424.556 17.84C425.569 18.24 426.476 18.7467 427.276 19.36C428.076 19.9467 428.716 20.68 429.196 21.56C429.676 22.44 429.916 23.4933 429.916 24.72C429.916 26.8267 429.409 28.52 428.396 29.8C427.382 31.08 425.996 32.0133 424.236 32.6C422.476 33.1867 420.462 33.48 418.196 33.48ZM435.464 33V5.56H441.424V33H435.464ZM448.295 33V5.56H462.575C464.549 5.56 466.189 5.93333 467.495 6.68C468.829 7.4 469.829 8.42667 470.495 9.76C471.189 11.0667 471.535 12.6267 471.535 14.44C471.535 16.2533 471.175 17.84 470.455 19.2C469.762 20.5333 468.735 21.5733 467.375 22.32C466.015 23.0667 464.349 23.44 462.375 23.44H454.255V33H448.295ZM454.255 18.56H461.575C462.829 18.56 463.789 18.2 464.455 17.48C465.149 16.76 465.495 15.76 465.495 14.48C465.495 13.6 465.349 12.8667 465.055 12.28C464.762 11.6933 464.322 11.24 463.735 10.92C463.175 10.6 462.455 10.44 461.575 10.44H454.255V18.56ZM482.981 33V5.56H494.181C497.035 5.56 499.461 6.05333 501.461 7.04C503.461 8.02666 504.995 9.53333 506.061 11.56C507.155 13.56 507.701 16.1333 507.701 19.28C507.701 22.4 507.155 24.9733 506.061 27C504.995 29.0267 503.461 30.5333 501.461 31.52C499.461 32.5067 497.035 33 494.181 33H482.981ZM488.941 28.08H494.141C495.341 28.08 496.408 27.9067 497.341 27.56C498.275 27.2133 499.048 26.7067 499.661 26.04C500.275 25.3467 500.741 24.4933 501.061 23.48C501.381 22.44 501.541 21.24 501.541 19.88V18.68C501.541 17.32 501.381 16.1333 501.061 15.12C500.741 14.08 500.275 13.2267 499.661 12.56C499.048 11.8667 498.275 11.3467 497.341 11C496.408 10.6267 495.341 10.44 494.141 10.44H488.941V28.08ZM513.352 33V5.56H519.312V33H513.352ZM538.663 33.48C534.343 33.48 531.01 32.3333 528.663 30.04C526.343 27.72 525.183 24.1333 525.183 19.28C525.183 16.0533 525.743 13.4 526.863 11.32C527.983 9.21333 529.61 7.65333 531.743 6.64C533.876 5.6 536.436 5.08 539.423 5.08C541.21 5.08 542.89 5.28 544.463 5.68C546.036 6.08 547.423 6.69333 548.623 7.52C549.85 8.34667 550.796 9.38667 551.463 10.64C552.156 11.8667 552.503 13.3333 552.503 15.04H546.463C546.463 14.2133 546.276 13.48 545.903 12.84C545.556 12.2 545.063 11.6667 544.423 11.24C543.783 10.8133 543.05 10.4933 542.223 10.28C541.396 10.0667 540.53 9.96 539.623 9.96C538.236 9.96 537.023 10.1467 535.983 10.52C534.943 10.8667 534.076 11.4133 533.383 12.16C532.716 12.88 532.21 13.7867 531.863 14.88C531.516 15.9733 531.343 17.24 531.343 18.68V19.88C531.343 21.88 531.636 23.52 532.223 24.8C532.81 26.08 533.69 27.04 534.863 27.68C536.036 28.2933 537.49 28.6 539.223 28.6C540.663 28.6 541.93 28.3867 543.023 27.96C544.143 27.5067 545.01 26.8667 545.623 26.04C546.263 25.2133 546.583 24.2 546.583 23V22.72H538.383V18.16H552.503V33H548.583L548.063 30.04C547.263 30.8133 546.396 31.4533 545.463 31.96C544.556 32.4667 543.543 32.84 542.423 33.08C541.303 33.3467 540.05 33.48 538.663 33.48ZM559.053 33V5.56H565.013V33H559.053ZM578.645 33V10.56H569.845V5.56H593.485V10.56H584.645V33H578.645ZM592.15 33L602.71 5.56H610.07L620.63 33H614.19L612.23 27.6H600.27L598.31 33H592.15ZM601.99 22.8H610.51L608.07 16.04C607.963 15.7467 607.83 15.4 607.67 15C607.537 14.5733 607.39 14.1067 607.23 13.6C607.07 13.0933 606.91 12.6 606.75 12.12C606.617 11.6133 606.483 11.16 606.35 10.76H606.11C605.977 11.2667 605.803 11.8667 605.59 12.56C605.377 13.2267 605.163 13.88 604.95 14.52C604.737 15.1333 604.563 15.64 604.43 16.04L601.99 22.8ZM624.695 33V5.56H630.655V27.92H644.495V33H624.695Z" fill="#555555"/>
<path d="M256.235 124.814C252.212 124.814 248.753 124.226 245.859 123.051C242.966 121.875 240.751 120.044 239.213 117.557C237.676 115.026 236.908 111.77 236.908 107.792V107.181H250.946V107.724C250.946 109.894 251.352 111.431 252.166 112.336C252.98 113.195 254.178 113.624 255.761 113.624C257.343 113.624 258.541 113.195 259.355 112.336C260.169 111.431 260.576 109.894 260.576 107.724V77.3422H275.563V107.792C275.563 111.77 274.794 115.026 273.257 117.557C271.72 120.044 269.505 121.875 266.611 123.051C263.718 124.226 260.259 124.814 256.235 124.814ZM280.377 124V77.3422H320.728V88.5319H295.365V94.9745H317.066V105.69H295.365V112.81H321.203V124H280.377ZM338.235 124.814C334.211 124.814 330.753 124.226 327.859 123.051C324.966 121.875 322.75 120.044 321.213 117.557C319.676 115.026 318.907 111.77 318.907 107.792V107.181H332.945V107.724C332.945 109.894 333.352 111.431 334.166 112.336C334.98 113.195 336.178 113.624 337.76 113.624C339.343 113.624 340.541 113.195 341.355 112.336C342.168 111.431 342.575 109.894 342.575 107.724V77.3422H357.563V107.792C357.563 111.77 356.794 115.026 355.257 117.557C353.72 120.044 351.505 121.875 348.611 123.051C345.718 124.226 342.259 124.814 338.235 124.814ZM357.834 124L374.856 77.3422H392.284L409.306 124H393.437L391.471 117.422H375.127L373.16 124H357.834ZM378.246 106.978H388.419L386.181 99.5182C386 98.9757 385.797 98.3201 385.571 97.5515C385.344 96.7829 385.118 95.9691 384.892 95.1101C384.666 94.2511 384.44 93.4147 384.214 92.6009C383.988 91.7419 383.785 90.9959 383.604 90.363H383.061C382.88 91.1768 382.632 92.1036 382.315 93.1434C382.044 94.1833 381.75 95.2684 381.434 96.3986C381.117 97.4837 380.801 98.5236 380.484 99.5182L378.246 106.978ZM409.532 124V77.3422H424.519V97.2803L441.134 77.3422H459.716L442.965 96.5343L460.055 124H442.355L432.454 106.571L424.519 114.234V124H409.532ZM477.173 124V89.2779H461.847V77.3422H507.419V89.2779H492.161V124H477.173ZM532.083 124.814C527.2 124.814 523.018 124.09 519.537 122.644C516.101 121.152 513.456 118.959 511.602 116.065C509.749 113.127 508.822 109.51 508.822 105.215V77.3422H523.809V105.011C523.809 107.498 524.488 109.555 525.844 111.183C527.2 112.81 529.257 113.624 532.015 113.624C534.773 113.624 536.83 112.81 538.187 111.183C539.588 109.555 540.289 107.498 540.289 105.011V77.3422H555.276V105.215C555.276 109.51 554.349 113.127 552.496 116.065C550.687 118.959 548.043 121.152 544.561 122.644C541.125 124.09 536.966 124.814 532.083 124.814ZM559.888 124V77.3422H574.876V112.064H598.815V124H559.888ZM599.696 124V77.3422H614.684V124H599.696ZM640.26 124.814C637.05 124.814 634.043 124.565 631.24 124.068C628.483 123.616 626.041 122.825 623.916 121.694C621.837 120.519 620.186 118.914 618.966 116.879C617.79 114.8 617.202 112.2 617.202 109.08C617.202 108.99 617.202 108.877 617.202 108.741C617.202 108.56 617.225 108.38 617.27 108.199H631.444C631.399 108.38 631.376 108.56 631.376 108.741C631.376 108.877 631.376 109.013 631.376 109.148C631.376 110.504 631.693 111.544 632.325 112.268C632.958 112.991 633.84 113.488 634.97 113.76C636.146 113.986 637.457 114.099 638.904 114.099C639.446 114.099 640.011 114.099 640.599 114.099C641.232 114.054 641.82 113.986 642.362 113.895C642.95 113.76 643.47 113.579 643.922 113.353C644.419 113.127 644.804 112.833 645.075 112.471C645.346 112.064 645.482 111.567 645.482 110.979C645.482 110.12 645.098 109.442 644.329 108.945C643.56 108.447 642.521 108.018 641.209 107.656C639.898 107.295 638.429 106.955 636.801 106.639C635.174 106.322 633.478 105.961 631.715 105.554C629.952 105.102 628.256 104.537 626.629 103.858C625.001 103.18 623.532 102.321 622.221 101.281C620.91 100.196 619.87 98.8626 619.101 97.2803C618.333 95.6527 617.948 93.7086 617.948 91.448C617.948 88.7354 618.513 86.4296 619.644 84.5307C620.774 82.6319 622.311 81.0947 624.255 79.9192C626.245 78.7437 628.483 77.8847 630.969 77.3422C633.501 76.7996 636.146 76.5284 638.904 76.5284C641.707 76.5284 644.329 76.8223 646.77 77.41C649.257 77.9525 651.45 78.8115 653.349 79.987C655.247 81.1625 656.739 82.6545 657.825 84.4629C658.91 86.2714 659.475 88.4189 659.52 90.9055V91.7193H645.482V91.448C645.482 90.6342 645.278 89.8656 644.872 89.1423C644.465 88.4189 643.809 87.8311 642.905 87.379C642.046 86.9269 640.893 86.7009 639.446 86.7009C638.09 86.7009 636.937 86.8365 635.988 87.1078C635.083 87.379 634.405 87.7633 633.953 88.2607C633.501 88.7128 633.275 89.2101 633.275 89.7526C633.275 90.6116 633.659 91.3124 634.428 91.8549C635.196 92.3975 636.236 92.8496 637.547 93.2113C638.858 93.573 640.328 93.912 641.955 94.2285C643.583 94.545 645.278 94.9067 647.042 95.3136C648.805 95.6753 650.5 96.1726 652.128 96.8055C653.756 97.4385 655.225 98.2749 656.536 99.3148C657.847 100.309 658.887 101.553 659.656 103.045C660.424 104.537 660.808 106.368 660.808 108.538C660.808 112.381 659.904 115.5 658.096 117.897C656.333 120.293 653.891 122.056 650.772 123.186C647.697 124.271 644.193 124.814 640.26 124.814ZM658.481 124L675.503 77.3422H692.932L709.954 124H694.085L692.118 117.422H675.774L673.808 124H658.481ZM678.894 106.978H689.066L686.828 99.5182C686.647 98.9757 686.444 98.3201 686.218 97.5515C685.992 96.7829 685.766 95.9691 685.54 95.1101C685.314 94.2511 685.088 93.4147 684.862 92.6009C684.636 91.7419 684.432 90.9959 684.251 90.363H683.709C683.528 91.1768 683.279 92.1036 682.963 93.1434C682.691 94.1833 682.398 95.2684 682.081 96.3986C681.765 97.4837 681.448 98.5236 681.132 99.5182L678.894 106.978ZM710.179 124V77.3422H722.928L737.441 94.0929C737.848 94.545 738.391 95.2006 739.069 96.0596C739.747 96.9186 740.425 97.8002 741.103 98.7044C741.827 99.5634 742.369 100.264 742.731 100.807L743.07 100.671C743.025 99.4052 743.002 98.1619 743.002 96.9412C743.002 95.6753 743.002 94.7258 743.002 94.0929V77.3422H756.633V124H743.952L727.608 105.35C726.839 104.446 726.184 103.632 725.641 102.909C725.099 102.14 724.579 101.417 724.081 100.739L723.742 100.875C723.787 101.734 723.81 102.593 723.81 103.452C723.81 104.311 723.81 104.944 723.81 105.35V124H710.179ZM11.6493 256V149.3H74.6148C81.3352 149.3 87.2285 150.851 92.2947 153.953C97.4643 156.951 101.497 161.138 104.392 166.515C107.287 171.891 108.734 178.146 108.734 185.28C108.734 192.621 107.235 199.031 104.236 204.511C101.341 209.887 97.3092 214.075 92.1397 217.073C87.0735 220.071 81.2318 221.571 74.6148 221.571H45.9236V256H11.6493ZM45.9236 196.602H63.1383C66.757 196.602 69.4452 195.671 71.2029 193.81C73.0639 191.949 73.9944 189.209 73.9944 185.59C73.9944 183.109 73.5809 181.093 72.7537 179.542C72.03 177.888 70.841 176.647 69.1867 175.82C67.6358 174.993 65.6197 174.579 63.1383 174.579H45.9236V196.602ZM111.631 256V149.3H203.908V174.889H145.905V189.623H195.533V214.126H145.905V230.411H204.994V256H111.631ZM210.682 256V149.3H277.525C285.486 149.3 292.103 150.902 297.376 154.108C302.752 157.313 306.785 161.5 309.473 166.67C312.161 171.839 313.505 177.422 313.505 183.419C313.505 190.243 311.902 196.343 308.697 201.719C305.492 206.992 301.15 211.231 295.67 214.437L316.607 256H278.145L261.861 220.175H244.956V256H210.682ZM244.956 196.446H268.995C271.683 196.446 273.958 195.413 275.819 193.345C277.68 191.173 278.61 188.33 278.61 184.815C278.61 182.644 278.197 180.731 277.37 179.077C276.543 177.422 275.405 176.13 273.958 175.199C272.51 174.166 270.856 173.649 268.995 173.649H244.956V196.446ZM319.448 256V149.3H411.725V174.889H353.722V189.623H403.35V214.126H353.722V230.411H412.811V256H319.448ZM418.499 256V149.3H466.266L476.037 186.831C476.45 188.175 477.019 190.398 477.743 193.5C478.57 196.602 479.397 199.962 480.224 203.58C481.154 207.199 481.982 210.559 482.705 213.661H483.946C484.463 211.387 485.083 208.698 485.807 205.597C486.634 202.391 487.461 199.135 488.288 195.826C489.116 192.518 489.839 189.519 490.46 186.831L500.23 149.3H546.291V256H513.568V217.538C513.568 213.403 513.568 209.164 513.568 204.821C513.671 200.375 513.723 196.188 513.723 192.259C513.826 188.33 513.878 185.073 513.878 182.489H512.637C512.327 184.556 511.862 186.986 511.241 189.778C510.724 192.569 510.156 195.361 509.535 198.152C508.915 200.841 508.295 203.219 507.674 205.286L493.872 256H468.282L454.324 205.286C453.807 203.219 453.187 200.841 452.463 198.152C451.843 195.361 451.274 192.569 450.757 189.778C450.24 186.986 449.775 184.608 449.362 182.644H448.121C448.224 185.228 448.328 188.485 448.431 192.414C448.534 196.343 448.586 200.479 448.586 204.821C448.689 209.164 448.741 213.403 448.741 217.538V256H418.499ZM556.787 256V149.3H619.753C626.473 149.3 632.367 150.851 637.433 153.953C642.602 156.951 646.635 161.138 649.53 166.515C652.425 171.891 653.872 178.146 653.872 185.28C653.872 192.621 652.373 199.031 649.375 204.511C646.48 209.887 642.447 214.075 637.278 217.073C632.212 220.071 626.37 221.571 619.753 221.571H591.062V256H556.787ZM591.062 196.602H608.276C611.895 196.602 614.583 195.671 616.341 193.81C618.202 191.949 619.132 189.209 619.132 185.59C619.132 183.109 618.719 181.093 617.892 179.542C617.168 177.888 615.979 176.647 614.325 175.82C612.774 174.993 610.758 174.579 608.276 174.579H591.062V196.602ZM709.499 257.861C698.332 257.861 688.769 256.207 680.808 252.898C672.95 249.486 666.901 244.472 662.662 237.855C658.423 231.134 656.304 222.863 656.304 213.041V149.3H690.578V212.576C690.578 218.262 692.129 222.966 695.231 226.688C698.332 230.411 703.037 232.272 709.344 232.272C715.651 232.272 720.355 230.411 723.457 226.688C726.662 222.966 728.264 218.262 728.264 212.576V149.3H762.539V213.041C762.539 222.863 760.419 231.134 756.18 237.855C752.044 244.472 745.996 249.486 738.035 252.898C730.177 256.207 720.665 257.861 709.499 257.861ZM760.888 256L799.815 149.3H839.673L878.6 256H842.309L837.812 240.957H800.436L795.938 256H760.888ZM807.57 217.073H830.833L825.715 200.013C825.301 198.773 824.836 197.274 824.319 195.516C823.802 193.758 823.285 191.897 822.768 189.933C822.251 187.968 821.734 186.056 821.217 184.195C820.7 182.23 820.235 180.524 819.822 179.077H818.581C818.167 180.938 817.599 183.057 816.875 185.435C816.255 187.813 815.583 190.295 814.859 192.879C814.135 195.361 813.411 197.739 812.688 200.013L807.57 217.073ZM879.115 256V149.3H908.271L941.46 187.606C942.39 188.64 943.631 190.14 945.182 192.104C946.733 194.068 948.284 196.085 949.834 198.152C951.489 200.117 952.729 201.719 953.557 202.96L954.332 202.65C954.229 199.755 954.177 196.912 954.177 194.12C954.177 191.225 954.177 189.054 954.177 187.606V149.3H985.349V256H956.348L918.972 213.351C917.214 211.283 915.715 209.422 914.475 207.768C913.234 206.01 912.045 204.356 910.908 202.805L910.132 203.115C910.236 205.08 910.287 207.044 910.287 209.009C910.287 210.973 910.287 212.42 910.287 213.351V256H879.115Z" fill="#77182D"/>
<path d="M158.52 322V294.56H169.72C172.574 294.56 175 295.053 177 296.04C179 297.027 180.534 298.533 181.6 300.56C182.694 302.56 183.24 305.133 183.24 308.28C183.24 311.4 182.694 313.973 181.6 316C180.534 318.027 179 319.533 177 320.52C175 321.507 172.574 322 169.72 322H158.52ZM164.48 317.08H169.68C170.88 317.08 171.947 316.907 172.88 316.56C173.814 316.213 174.587 315.707 175.2 315.04C175.814 314.347 176.28 313.493 176.6 312.48C176.92 311.44 177.08 310.24 177.08 308.88V307.68C177.08 306.32 176.92 305.133 176.6 304.12C176.28 303.08 175.814 302.227 175.2 301.56C174.587 300.867 173.814 300.347 172.88 300C171.947 299.627 170.88 299.44 169.68 299.44H164.48V317.08ZM188.091 322V294.56H194.051V322H188.091ZM207.974 322V294.56H217.054L220.974 308.6C221.134 309.107 221.294 309.707 221.454 310.4C221.614 311.093 221.774 311.787 221.934 312.48C222.12 313.147 222.267 313.747 222.374 314.28H222.694C222.747 313.827 222.84 313.293 222.974 312.68C223.107 312.04 223.254 311.36 223.414 310.64C223.574 309.92 223.747 309.227 223.934 308.56L227.854 294.56H236.774V322H230.894V309C230.894 307.8 230.894 306.6 230.894 305.4C230.92 304.173 230.947 303.107 230.974 302.2C231.027 301.293 231.054 300.707 231.054 300.44H230.734C230.68 300.733 230.547 301.28 230.334 302.08C230.147 302.853 229.934 303.68 229.694 304.56C229.48 305.44 229.28 306.2 229.094 306.84L224.814 322H219.614L215.294 306.88C215.134 306.32 214.947 305.667 214.734 304.92C214.547 304.147 214.36 303.36 214.174 302.56C214.014 301.733 213.854 301.027 213.694 300.44H213.374C213.4 301.16 213.427 302.027 213.454 303.04C213.48 304.027 213.507 305.053 213.534 306.12C213.56 307.16 213.574 308.12 213.574 309V322H207.974ZM240.056 322L250.616 294.56H257.976L268.536 322H262.096L260.136 316.6H248.176L246.216 322H240.056ZM249.896 311.8H258.416L255.976 305.04C255.87 304.747 255.736 304.4 255.576 304C255.443 303.573 255.296 303.107 255.136 302.6C254.976 302.093 254.816 301.6 254.656 301.12C254.523 300.613 254.39 300.16 254.256 299.76H254.016C253.883 300.267 253.71 300.867 253.496 301.56C253.283 302.227 253.07 302.88 252.856 303.52C252.643 304.133 252.47 304.64 252.336 305.04L249.896 311.8ZM282.482 322.48C280.882 322.48 279.362 322.32 277.922 322C276.482 321.68 275.202 321.173 274.082 320.48C272.988 319.76 272.122 318.867 271.482 317.8C270.868 316.707 270.562 315.387 270.562 313.84C270.562 313.707 270.562 313.573 270.562 313.44C270.562 313.28 270.575 313.16 270.602 313.08H276.522C276.495 313.16 276.482 313.267 276.482 313.4C276.482 313.533 276.482 313.653 276.482 313.76C276.482 314.613 276.708 315.333 277.162 315.92C277.642 316.507 278.335 316.947 279.242 317.24C280.148 317.533 281.202 317.68 282.402 317.68C283.175 317.68 283.855 317.64 284.442 317.56C285.055 317.453 285.588 317.32 286.042 317.16C286.522 316.973 286.908 316.76 287.202 316.52C287.522 316.28 287.748 316 287.882 315.68C288.042 315.36 288.122 315 288.122 314.6C288.122 313.88 287.882 313.293 287.402 312.84C286.948 312.387 286.308 312 285.482 311.68C284.682 311.36 283.775 311.067 282.762 310.8C281.748 310.533 280.708 310.267 279.642 310C278.575 309.707 277.535 309.36 276.522 308.96C275.508 308.533 274.602 308.027 273.802 307.44C273.002 306.853 272.362 306.107 271.882 305.2C271.402 304.293 271.162 303.2 271.162 301.92C271.162 300.56 271.442 299.387 272.002 298.4C272.588 297.413 273.402 296.6 274.442 295.96C275.482 295.32 276.682 294.853 278.042 294.56C279.402 294.24 280.882 294.08 282.482 294.08C283.975 294.08 285.388 294.24 286.722 294.56C288.055 294.853 289.228 295.333 290.242 296C291.255 296.667 292.042 297.507 292.602 298.52C293.188 299.533 293.482 300.733 293.482 302.12V302.6H287.682V302.28C287.682 301.56 287.468 300.947 287.042 300.44C286.615 299.933 286.015 299.533 285.242 299.24C284.468 298.947 283.562 298.8 282.522 298.8C281.402 298.8 280.442 298.907 279.642 299.12C278.868 299.333 278.268 299.653 277.842 300.08C277.442 300.48 277.242 300.96 277.242 301.52C277.242 302.16 277.468 302.693 277.922 303.12C278.402 303.52 279.042 303.88 279.842 304.2C280.668 304.493 281.588 304.76 282.602 305C283.615 305.24 284.655 305.507 285.722 305.8C286.788 306.093 287.828 306.44 288.842 306.84C289.855 307.24 290.762 307.747 291.562 308.36C292.362 308.947 293.002 309.68 293.482 310.56C293.962 311.44 294.202 312.493 294.202 313.72C294.202 315.827 293.695 317.52 292.682 318.8C291.668 320.08 290.282 321.013 288.522 321.6C286.762 322.187 284.748 322.48 282.482 322.48ZM296.15 322L306.71 294.56H314.07L324.63 322H318.19L316.23 316.6H304.27L302.31 322H296.15ZM305.99 311.8H314.51L312.07 305.04C311.963 304.747 311.83 304.4 311.67 304C311.537 303.573 311.39 303.107 311.23 302.6C311.07 302.093 310.91 301.6 310.75 301.12C310.617 300.613 310.483 300.16 310.35 299.76H310.11C309.977 300.267 309.803 300.867 309.59 301.56C309.377 302.227 309.163 302.88 308.95 303.52C308.737 304.133 308.563 304.64 308.43 305.04L305.99 311.8ZM335.747 322V294.56H350.027C352 294.56 353.64 294.933 354.947 295.68C356.28 296.4 357.28 297.427 357.947 298.76C358.64 300.067 358.987 301.627 358.987 303.44C358.987 305.253 358.627 306.84 357.907 308.2C357.214 309.533 356.187 310.573 354.827 311.32C353.467 312.067 351.8 312.44 349.827 312.44H341.707V322H335.747ZM341.707 307.56H349.027C350.28 307.56 351.24 307.2 351.907 306.48C352.6 305.76 352.947 304.76 352.947 303.48C352.947 302.6 352.8 301.867 352.507 301.28C352.214 300.693 351.774 300.24 351.187 299.92C350.627 299.6 349.907 299.44 349.027 299.44H341.707V307.56ZM362.974 322V294.56H384.894V299.44H368.974V305.56H383.054V310.4H368.974V317.08H385.134V322H362.974ZM390.278 322V294.56H405.318C407.345 294.56 409.025 294.92 410.358 295.64C411.718 296.36 412.732 297.373 413.398 298.68C414.065 299.96 414.398 301.44 414.398 303.12C414.398 304.907 413.998 306.493 413.198 307.88C412.398 309.24 411.238 310.28 409.718 311L415.318 322H408.718L403.878 312H396.238V322H390.278ZM396.238 307.28H404.518C405.718 307.28 406.652 306.92 407.318 306.2C407.985 305.453 408.318 304.453 408.318 303.2C408.318 302.4 408.172 301.72 407.878 301.16C407.585 300.573 407.158 300.133 406.598 299.84C406.038 299.547 405.345 299.4 404.518 299.4H396.238V307.28ZM431.821 322.48C427.501 322.48 424.167 321.333 421.821 319.04C419.501 316.72 418.341 313.133 418.341 308.28C418.341 305.053 418.901 302.4 420.021 300.32C421.141 298.213 422.767 296.653 424.901 295.64C427.034 294.6 429.594 294.08 432.581 294.08C434.367 294.08 436.047 294.28 437.621 294.68C439.194 295.08 440.581 295.693 441.781 296.52C443.007 297.347 443.954 298.387 444.621 299.64C445.314 300.867 445.661 302.333 445.661 304.04H439.621C439.621 303.213 439.434 302.48 439.061 301.84C438.714 301.2 438.221 300.667 437.581 300.24C436.941 299.813 436.207 299.493 435.381 299.28C434.554 299.067 433.687 298.96 432.781 298.96C431.394 298.96 430.181 299.147 429.141 299.52C428.101 299.867 427.234 300.413 426.541 301.16C425.874 301.88 425.367 302.787 425.021 303.88C424.674 304.973 424.501 306.24 424.501 307.68V308.88C424.501 310.88 424.794 312.52 425.381 313.8C425.967 315.08 426.847 316.04 428.021 316.68C429.194 317.293 430.647 317.6 432.381 317.6C433.821 317.6 435.087 317.387 436.181 316.96C437.301 316.507 438.167 315.867 438.781 315.04C439.421 314.213 439.741 313.2 439.741 312V311.72H431.541V307.16H445.661V322H441.741L441.221 319.04C440.421 319.813 439.554 320.453 438.621 320.96C437.714 321.467 436.701 321.84 435.581 322.08C434.461 322.347 433.207 322.48 431.821 322.48ZM451.411 322V294.56H473.331V299.44H457.411V305.56H471.491V310.4H457.411V317.08H473.571V322H451.411ZM478.716 322V294.56H493.756C495.782 294.56 497.462 294.92 498.796 295.64C500.156 296.36 501.169 297.373 501.836 298.68C502.502 299.96 502.836 301.44 502.836 303.12C502.836 304.907 502.436 306.493 501.636 307.88C500.836 309.24 499.676 310.28 498.156 311L503.756 322H497.156L492.316 312H484.676V322H478.716ZM484.676 307.28H492.956C494.156 307.28 495.089 306.92 495.756 306.2C496.422 305.453 496.756 304.453 496.756 303.2C496.756 302.4 496.609 301.72 496.316 301.16C496.022 300.573 495.596 300.133 495.036 299.84C494.476 299.547 493.782 299.4 492.956 299.4H484.676V307.28ZM505.135 322L515.695 294.56H523.055L533.615 322H527.175L525.215 316.6H513.255L511.295 322H505.135ZM514.975 311.8H523.495L521.055 305.04C520.948 304.747 520.815 304.4 520.655 304C520.521 303.573 520.375 303.107 520.215 302.6C520.055 302.093 519.895 301.6 519.735 301.12C519.601 300.613 519.468 300.16 519.335 299.76H519.095C518.961 300.267 518.788 300.867 518.575 301.56C518.361 302.227 518.148 302.88 517.935 303.52C517.721 304.133 517.548 304.64 517.415 305.04L514.975 311.8ZM536.88 322V294.56H542.84V307.04L554.52 294.56H561.88L551.4 305.72L562.08 322H554.96L547.28 309.84L542.84 313.84V322H536.88ZM561.072 322L571.632 294.56H578.992L589.552 322H583.112L581.152 316.6H569.192L567.232 322H561.072ZM570.912 311.8H579.432L576.992 305.04C576.885 304.747 576.752 304.4 576.592 304C576.459 303.573 576.312 303.107 576.152 302.6C575.992 302.093 575.832 301.6 575.672 301.12C575.539 300.613 575.405 300.16 575.272 299.76H575.032C574.899 300.267 574.725 300.867 574.512 301.56C574.299 302.227 574.085 302.88 573.872 303.52C573.659 304.133 573.485 304.64 573.352 305.04L570.912 311.8ZM592.817 322V294.56H598.297L609.337 309.36C609.497 309.547 609.697 309.813 609.937 310.16C610.177 310.48 610.404 310.8 610.617 311.12C610.831 311.44 610.977 311.693 611.057 311.88H611.257C611.257 311.427 611.257 310.987 611.257 310.56C611.257 310.107 611.257 309.707 611.257 309.36V294.56H616.897V322H611.417L600.137 306.84C599.871 306.467 599.591 306.053 599.297 305.6C599.004 305.147 598.791 304.8 598.657 304.56H598.457C598.457 304.96 598.457 305.36 598.457 305.76C598.457 306.133 598.457 306.493 598.457 306.84V322H592.817ZM630.825 322V294.56H636.305L647.345 309.36C647.505 309.547 647.705 309.813 647.945 310.16C648.185 310.48 648.412 310.8 648.625 311.12C648.838 311.44 648.985 311.693 649.065 311.88H649.265C649.265 311.427 649.265 310.987 649.265 310.56C649.265 310.107 649.265 309.707 649.265 309.36V294.56H654.905V322H649.425L638.145 306.84C637.878 306.467 637.598 306.053 637.305 305.6C637.012 305.147 636.798 304.8 636.665 304.56H636.465C636.465 304.96 636.465 305.36 636.465 305.76C636.465 306.133 636.465 306.493 636.465 306.84V322H630.825ZM658.181 322L668.741 294.56H676.101L686.661 322H680.221L678.261 316.6H666.301L664.341 322H658.181ZM668.021 311.8H676.541L674.101 305.04C673.995 304.747 673.861 304.4 673.701 304C673.568 303.573 673.421 303.107 673.261 302.6C673.101 302.093 672.941 301.6 672.781 301.12C672.648 300.613 672.515 300.16 672.381 299.76H672.141C672.008 300.267 671.835 300.867 671.621 301.56C671.408 302.227 671.195 302.88 670.981 303.52C670.768 304.133 670.595 304.64 670.461 305.04L668.021 311.8ZM700.607 322.48C699.007 322.48 697.487 322.32 696.047 322C694.607 321.68 693.327 321.173 692.207 320.48C691.113 319.76 690.247 318.867 689.607 317.8C688.993 316.707 688.687 315.387 688.687 313.84C688.687 313.707 688.687 313.573 688.687 313.44C688.687 313.28 688.7 313.16 688.727 313.08H694.647C694.62 313.16 694.607 313.267 694.607 313.4C694.607 313.533 694.607 313.653 694.607 313.76C694.607 314.613 694.833 315.333 695.287 315.92C695.767 316.507 696.46 316.947 697.367 317.24C698.273 317.533 699.327 317.68 700.527 317.68C701.3 317.68 701.98 317.64 702.567 317.56C703.18 317.453 703.713 317.32 704.167 317.16C704.647 316.973 705.033 316.76 705.327 316.52C705.647 316.28 705.873 316 706.007 315.68C706.167 315.36 706.247 315 706.247 314.6C706.247 313.88 706.007 313.293 705.527 312.84C705.073 312.387 704.433 312 703.607 311.68C702.807 311.36 701.9 311.067 700.887 310.8C699.873 310.533 698.833 310.267 697.767 310C696.7 309.707 695.66 309.36 694.647 308.96C693.633 308.533 692.727 308.027 691.927 307.44C691.127 306.853 690.487 306.107 690.007 305.2C689.527 304.293 689.287 303.2 689.287 301.92C689.287 300.56 689.567 299.387 690.127 298.4C690.713 297.413 691.527 296.6 692.567 295.96C693.607 295.32 694.807 294.853 696.167 294.56C697.527 294.24 699.007 294.08 700.607 294.08C702.1 294.08 703.513 294.24 704.847 294.56C706.18 294.853 707.353 295.333 708.367 296C709.38 296.667 710.167 297.507 710.727 298.52C711.313 299.533 711.607 300.733 711.607 302.12V302.6H705.807V302.28C705.807 301.56 705.593 300.947 705.167 300.44C704.74 299.933 704.14 299.533 703.367 299.24C702.593 298.947 701.687 298.8 700.647 298.8C699.527 298.8 698.567 298.907 697.767 299.12C696.993 299.333 696.393 299.653 695.967 300.08C695.567 300.48 695.367 300.96 695.367 301.52C695.367 302.16 695.593 302.693 696.047 303.12C696.527 303.52 697.167 303.88 697.967 304.2C698.793 304.493 699.713 304.76 700.727 305C701.74 305.24 702.78 305.507 703.847 305.8C704.913 306.093 705.953 306.44 706.967 306.84C707.98 307.24 708.887 307.747 709.687 308.36C710.487 308.947 711.127 309.68 711.607 310.56C712.087 311.44 712.327 312.493 712.327 313.72C712.327 315.827 711.82 317.52 710.807 318.8C709.793 320.08 708.407 321.013 706.647 321.6C704.887 322.187 702.873 322.48 700.607 322.48ZM717.075 322V294.56H723.035V322H717.075ZM741.906 322.48C739 322.48 736.493 321.96 734.386 320.92C732.28 319.88 730.666 318.307 729.546 316.2C728.426 314.093 727.866 311.453 727.866 308.28C727.866 305.053 728.426 302.4 729.546 300.32C730.666 298.213 732.28 296.653 734.386 295.64C736.493 294.6 739 294.08 741.906 294.08C744.866 294.08 747.386 294.6 749.466 295.64C751.573 296.653 753.186 298.213 754.306 300.32C755.426 302.4 755.986 305.053 755.986 308.28C755.986 311.453 755.426 314.093 754.306 316.2C753.186 318.307 751.573 319.88 749.466 320.92C747.386 321.96 744.866 322.48 741.906 322.48ZM741.906 317.6C743.213 317.6 744.36 317.413 745.346 317.04C746.333 316.667 747.16 316.107 747.826 315.36C748.493 314.613 749 313.707 749.346 312.64C749.693 311.547 749.866 310.307 749.866 308.92V307.68C749.866 306.267 749.693 305.013 749.346 303.92C749 302.827 748.493 301.92 747.826 301.2C747.16 300.453 746.333 299.893 745.346 299.52C744.36 299.147 743.213 298.96 741.906 298.96C740.626 298.96 739.493 299.147 738.506 299.52C737.52 299.893 736.693 300.453 736.026 301.2C735.36 301.92 734.853 302.827 734.506 303.92C734.186 305.013 734.026 306.267 734.026 307.68V308.92C734.026 310.307 734.186 311.547 734.506 312.64C734.853 313.707 735.36 314.613 736.026 315.36C736.693 316.107 737.52 316.667 738.506 317.04C739.493 317.413 740.626 317.6 741.906 317.6ZM760.825 322V294.56H766.305L777.345 309.36C777.505 309.547 777.705 309.813 777.945 310.16C778.185 310.48 778.412 310.8 778.625 311.12C778.838 311.44 778.985 311.693 779.065 311.88H779.265C779.265 311.427 779.265 310.987 779.265 310.56C779.265 310.107 779.265 309.707 779.265 309.36V294.56H784.905V322H779.425L768.145 306.84C767.878 306.467 767.598 306.053 767.305 305.6C767.012 305.147 766.798 304.8 766.665 304.56H766.465C766.465 304.96 766.465 305.36 766.465 305.76C766.465 306.133 766.465 306.493 766.465 306.84V322H760.825ZM788.181 322L798.741 294.56H806.101L816.661 322H810.221L808.261 316.6H796.301L794.341 322H788.181ZM798.021 311.8H806.541L804.101 305.04C803.995 304.747 803.861 304.4 803.701 304C803.568 303.573 803.421 303.107 803.261 302.6C803.101 302.093 802.941 301.6 802.781 301.12C802.648 300.613 802.515 300.16 802.381 299.76H802.141C802.008 300.267 801.835 300.867 801.621 301.56C801.408 302.227 801.195 302.88 800.981 303.52C800.768 304.133 800.595 304.64 800.461 305.04L798.021 311.8ZM819.927 322V294.56H825.887V316.92H839.727V322H819.927Z" fill="black"/>
</svg>
